<?xml version="1.0" encoding="utf-8"?>
<!-- Generator: Adobe Illustrator 22.1.0, SVG Export Plug-In . SVG Version: 6.00 Build 0)  -->
<svg version="1.1" id="Layer_1" xmlns="http://www.w3.org/2000/svg" xmlns:xlink="http://www.w3.org/1999/xlink" x="0px" y="0px"
	 viewBox="0 0 500 500" style="enable-background:new 0 0 500 500;" xml:space="preserve">
<style type="text/css">
	.st0{clip-path:url(#XMLID_2_);fill:#06896B;}
	.st1{fill:#1D1D1B;stroke:#1D1D1B;stroke-width:2;stroke-linejoin:round;stroke-miterlimit:10;}
</style>
<g>
	<g id="XMLID_288_">
		<defs>
			<path id="XMLID_289_" d="M450.7,148.4c0.4-6.9-9.8-15.6-9.8-15.6s0.2,0.9-3,17.4c-2.2,11.1-4,16.4-5,18.7c-0.3,0.5-0.5,1-0.7,1.5
				c-2.4,5.5-5.6,10.4-9.6,14.4c-4.2,4.2-9.2,8-14.8,11.3c-5.8,3.4-12.2,6.5-19.1,9.2c-5.7,2.2-11.7,4.3-17.8,6.3
				c-1.4-1.7-2.9-3.3-4.4-4.8c-2.5-2.5-5.2-5-8.3-7.7c-11.2-8.8-24.7-15.5-39.9-20c-2.6-0.8-5.3-1.5-8-2.2
				c7.6-5.9,14.8-13.1,21.6-21.4c4.5-5.5,8.6-11.4,12.2-17.5c3.6-6.1,6.7-12.4,9.3-18.8c2.6-6.6,4.7-13.1,6.2-19.4
				c1.6-6.5,2.3-12.9,2.3-18.9c0-15-4.7-27.5-14-37.2c-10-10-24.5-15.1-42.9-15.1c-24.4,0-46.4,12.9-65.7,38.3
				c-7,9.4-13.9,20.8-20.3,33.7c-6.4,12.8-12.4,27.6-17.9,43.8c-2.6,7.5-5,15.1-7.1,22.6c-0.1-3.8-0.2-7.6-0.3-11.5
				c-0.3-10-0.4-20.2-0.4-30.3c0-8.7,0.1-17.2,0.4-25.3c7.7-4,14.8-8.6,21.1-13.7c7.6-6.2,13.6-14.2,17.7-23.7
				c4.2-9.1,6.3-17.9,6.3-26c0-8.7-2.3-16.1-6.8-21.9c-6.1-7.7-14.4-11.1-23.9-9.6c-6.6,1.1-12.7,4.7-18.1,10.5
				c-5,5.4-9,12.7-11.8,21.5c-3.4,10.7-5.8,26.3-7.3,47.5c-5.6,2.1-11.3,4-17.1,5.8c-7.4,2.2-14.8,4.4-22.3,6.6
				c-10.8,3.1-21.6,6.3-32.2,9.7c-11,3.5-21,8-29.8,13.5c-20.9,13.3-31.1,32.1-30.3,55.7c0,0,0,24.4,2.8,36.1c0,0,4.5-5.9,11.7-15.2
				c0,0-2.8,5.6,6.9,13.9c0,0,2.3-20.1,2.1-35.6c-0.6-14.8,5.8-26.2,19.4-34.9c7.1-4.4,15.4-8.2,24.7-11.3c9.7-3.2,20.1-6.3,31-9.4
				c6.8-2,13.6-3.9,20.5-5.8c3.9-1.1,7.7-2.2,11.4-3.5c-0.1,6.7-0.2,13.8-0.1,21.2c0.1,11,0.3,23,0.7,35.7c0.4,12,0.9,23.4,1.5,34.1
				c0.6,10.7,1.2,20.2,1.8,28.4c0.5,8.2,1,14.8,1.4,19.7c0.3,4.4,0.5,6.9,0.5,7.1l0,0.8c0.4,2.8,1.5,5.4,3.5,7.3
				c2.1,2.1,4.9,3.2,8,3.2c6.3,0,10.9-3.8,12-9.9l0.1-0.8c0.1-1,0.6-4,1.3-9c0.9-6.1,2.3-14.2,4.3-24c2-9.9,4.5-21.2,7.6-33.8
				c3.1-12.4,6.9-25.3,11.3-38.3c10.4-30.1,22.1-53.9,34.8-70.7c14.5-19.4,29.9-28.8,46.8-28.8c11.3,0,19.9,2.5,25.4,7.3
				c5.4,4.7,8,11.7,8,21.4c0,8.9-2.2,18.7-6.5,29.2c-4.4,10.8-10.6,21.1-18.3,30.6c-8.1,10.2-16.8,18-25.9,23.4
				c-8.7,5.1-17.2,7.8-25.4,7.8c-3.1,0-6,1.2-8.3,3.5c-2.3,2.3-3.5,5.2-3.5,8.3c0,3.1,1.2,6,3.5,8.3c2.3,2.3,5.2,3.5,8.3,3.5
				c17.5,0,33.4,1.9,47.3,5.7c13.5,3.7,24.9,9.3,33.9,16.6l0.4,0.3c0.4,0.3,0.8,0.6,1.2,0.9c-8.4,2.3-16.7,4.7-25.1,7.2
				c-8.6,2.6-17.2,5.5-25.4,8.8c-8.3,3.3-16.5,7.2-24.3,11.4c-8,4.3-15.6,9.5-22.6,15.3c-11.3,9.6-19.1,20.7-23,32.8
				c-2,5.9-3,12-2.9,18c0.1,6,1.2,11.9,3.2,17.3c3.9,10.9,10.7,19.5,20.3,25.7c9.4,6.1,20.4,9.1,32.8,9.1c16.2,0,31.7-2.9,45.9-8.6
				c6.6-2.7,13-5.9,18.9-9.6c6-3.8,11.5-8.2,16.5-13.1c9.7-9.5,17.3-20.4,22.6-32.3c5.3-12,8-24.5,8-37.2c0-11.2-2.1-21.8-6.4-31.6
				c5.8-1.9,11.5-4.1,17-6.3c7.9-3.2,15.2-6.9,21.8-11.1c6.7-4.2,12.9-9.2,18.2-14.8c5.6-5.8,10.1-12.6,13.5-20.6
				c6.2-13.1,9.4-45.4,9.4-45.4C453.4,141.5,450.7,148.4,450.7,148.4z M196.7,60.5c1-6.7,2.3-12.3,3.8-16.8c2.5-7.4,5-11,6.6-12.7
				c2.3-2.4,3.7-3.1,4.3-3.3h0.7c0.4,0,0.5,0.1,0.7,0.1l0.5,0.7c0.6,0.8,1.8,2.9,2,7.9c0.2,4.1-1.2,9.5-4.2,16.1
				c-3.1,6.9-8.4,13.1-15.7,18.5C195.8,67.3,196.2,63.8,196.7,60.5z M360.2,291.1c-4.1,9.1-9.9,17.5-17.4,24.8
				c-7.5,7.3-16.8,13.4-27.8,18c-10.9,4.6-23.3,6.9-37,6.9c-7.7,0-14.1-1.7-19.7-5.2c-5.4-3.4-9-7.9-11.1-13.9
				c-2.6-6.9-2.5-13.9,0.2-21.3c2.7-7.7,8-14.8,15.5-21c5.8-4.8,12.2-9,19.1-12.7c7-3.7,14.5-7.1,22-10.1c7.7-3,15.6-5.7,23.6-8.1
				c8.2-2.4,16.3-4.8,24.5-7.2l8.8-2.6c3.6,7.7,5.5,16,5.5,24.9C366.3,272.8,364.3,282,360.2,291.1z"/>
		</defs>
		<use xlink:href="#XMLID_289_"  style="overflow:visible;fill:#6FC1B0;"/>
		<clipPath id="XMLID_2_">
			<use xlink:href="#XMLID_289_"  style="overflow:visible;"/>
		</clipPath>
		<path id="XMLID_296_" class="st0" d="M211.6,28.2c0,0-9.6-23-29.4-14.5c-10.1,4.3-17.7,26.1-18.2,27.9c-0.5,1.8,1.3,19.8,2.3,30.7
			S169,84,169,84s14.8-3.9,24.6-12.9s7.2-25.1,7.2-25.1l10.2-18"/>
		<path id="XMLID_295_" class="st0" d="M167.9,109.6l24-10.1l0.3,67.1c0,0-6.9,89.4,4.8,90.7c23.9,2.6-13,25.3-21.5,18.6
			c-8.5-6.7-14.9-107.8-12.4-130.1S167.9,109.6,167.9,109.6"/>
		<path id="XMLID_294_" class="st0" d="M359.1,238.8l22.7-6.8c0,0,24.3-7,27.1,41.3c2.8,48.2-31.2,106.4-84.4,108.5
			c0,0-96.3,9.4-102.6-33.2s39.3-69.3,39.3-69.3"/>
		<path id="XMLID_293_" class="st0" d="M308.5,176.7c-7.1,4.9-17.2,10.7-30.2,14.7c-6.5,2-12.5,3.1-17.8,3.8c0,0,22.4,0.2,39.4,6.9
			c17,6.7,43.3,16.6,43.3,16.6l25.8-7.3c0,0,4.2-3.7,0.6-12.3c-7.4-17.2-39-21.5-45.1-22.2C318,176.3,312.4,176.4,308.5,176.7z"/>
	</g>
</g>
<g>
	<path class="st1" d="M104.4,437.3c-0.4,1.6-1.4,3.5-2.4,5c-0.2,0.4-0.3,0.6-0.4,0.6c-0.9,1.1-1.5,1.9-2.2,2.6l-0.6,0.5
		c-0.3,0.3-0.5,0.5-0.5,0.5c-0.2,0.2-0.2,0.4-1,0.9l-0.3,0.2c-0.1,0.1-0.2,0.2-0.2,0.2c0,0.1,0,0.1-0.2,0.2
		c-1.4,1.2-3.3,1.4-5.1,1.4c-0.3,0.1-0.5,0.1-0.7,0c-0.1,0.1-0.4,0.1-0.5,0l-0.5,0l-2-0.3c-2.7-0.4-5.6-1.6-8.8-3l-1.1-0.5
		c-1.2-0.6-2.5-1.1-3.7-1.6l-2.4-1.1c-0.2-0.2-0.6-0.4-1.3-0.7l-0.9-0.4c-0.6-0.3-1-0.7-1.1-1.1s-0.2-0.8,0-1.1
		c-0.1-0.1-0.1-0.1,0-0.2c0.1-0.5,0.7-1.5,1-1.9l0.2-0.2l2.5-5.4c1.4-3,2.8-6,4.1-9.1c1-2.3,2.7-5.9,3.6-8c1.2-2.6,2.4-5.3,3.9-7.9
		c0.6-1.3,2.2-5,2.5-5.6c0.1-0.3,0.2-0.6,0.3-0.9l1.8-3.8c0.1-0.3,0.4-0.5,0.6-0.9c0.1-0.3,0.1-0.5,0.3-0.9l1.4-2.9
		c0.3-0.7,1-1.9,1.5-2.7c0.1-0.3,0.6-1.2,0.8-1.4c0.2-0.4,0.6-1.1,0.8-1.5l0-0.1c0-0.1,0.1-0.2,0.2-0.2l0.2-0.5
		c0.2-0.6,0.6-1.2,1.3-1.4l1.1,0.5c0.4,0.2,0.8,0.3,1.3,0.4l0.7,0.3c0.7,0.3,1.2,0.5,1.9,0.8l0.9,0.4c0.3,0.1,0.5,0.1,0.9,0.3
		c1.7,0.8,3.9,1.7,5.3,2.7c0.3,0.1,0.3,0.2,0.5,0.4l0.4,0.2c3,1.8,5.7,3.4,6.9,5.2l0.5,1.3c0.8,2.3,1.1,4.5,1.3,6.4
		c-0.1,0.4-0.1,0.7-0.1,0.7c-0.2,2.2-0.9,4.5-1.5,6.6c-1.3,3.6-3.9,6.3-5.9,8.2l-2.3,1.7l-1.2,0.6l0.1-0.1c-1.2,0.8-2.1,1.5-3.5,1.7
		c0.8,0.9,1.3,1.9,1.5,3.1l0.1,0.5l0.2,0.7l0.5,1.4c-0.1,0.3,0.1,0.9,0.1,1.5l-0.1,0l0.2,1.1c0.4,1,0,1.9-0.3,3.1c0,0.1,0,0.2,0,0.3
		l-0.3,1.3c0,0.1-0.1,0.2,0,0.3c-0.1,0.2-0.1,0.3-0.1,0.4c-0.1,0.3-0.2,0.5-0.2,0.6c-0.1,0.3-0.2,0.5-0.2,0.6L104.4,437.3z
		 M100.7,440.4c0.5-1.1,1-2.2,1.3-3.1c-0.1-0.1,0-0.3,0.2-0.6c-0.1-0.1-0.1-0.4,0.1-0.7c0-0.2,0.1-0.5,0.4-1c0-0.1-0.1,0,0-0.3
		c-0.1-0.1,0-0.3,0.2-0.7c0-0.1-0.1,0,0.1-0.4c-0.1-0.1,0-0.2,0.1-0.4c0.1-0.5,0.1-1.2,0.1-2l0-0.7c-0.1-0.1,0-0.2,0.1-0.4
		c-0.2-0.4-0.1-1-0.3-1.4c-0.1-0.5-0.1-1,0-1.5l-0.2-0.4l0-0.1c-0.3-0.2-0.4-0.4-0.4-0.8l-0.1-0.1l-0.4-0.7
		c-0.4-1.2-0.9-1.9-1.6-2.3c-0.1-0.1-0.2-0.2-0.3-0.3c-0.7-0.3-1.2-0.5-2-0.7c-0.1,0-0.3,0-0.7-0.2l-14.8-6.9
		c-1,1.8-1.7,3.5-2.5,5.2c-0.9,2-1.8,3.8-2.6,5.7c-1.2,2.8-2.4,5.4-3.7,8.2l-2.1,4.4c-0.1,0.3-0.2,0.5-0.4,0.5
		c-0.2,0.4-0.3,0.9-0.5,1.3l0.5,0.2c0.3,0.3,0.6,0.5,0.8,0.5c0.1,0,0.2,0.2,0.5,0.4l5.4,2.5c2.7,1.2,5.3,2.4,7.8,3
		c1.2,0.5,2.2,0.6,3.9,0.9l0.1,0c0.1,0,0.2,0.1,0.3,0l0.6,0l0.7,0.1l-0.1,0l0.8-0.1c0.8,0,1.4-0.2,2.1-0.4l0.3-0.1
		c0,0.1,0.1-0.1,0.4-0.4c0.4-0.2,1-0.5,1.3-1c0.3-0.1,0.5-0.3,0.6-0.5l2.2-2.3c0.5-0.4,0.9-1.1,1.4-2L100.7,440.4z M94.8,388.5
		c-0.6,1-1,1.8-1.5,2.9l-9.8,21c1.2,0.6,2.3,1.2,3.4,1.7l11.3,5.3c0.9,0.4,1.7,0.7,2.7,0.8c0,0.1,0,0.1,0.1,0c0.1,0,0.2,0,0.7-0.2
		c1,0,1.6-0.4,2.6-0.8l0.5-0.3l-0.1,0.1c0.2-0.2,0.4-0.3,0.8-0.5l-0.1,0c2.4-1.3,4.5-3.2,6.3-5.6l0,0.1c0.7-1.1,1.4-2.2,1.9-3.3
		c0.8-1.7,1.2-3.4,1.7-5.4c-0.1-0.1-0.1-0.4,0-0.6c-0.1,0-0.1-0.3,0-0.6c-0.2-2.4-0.6-4.7-1.1-6.3c-0.2-0.1-0.3-0.3-0.4-0.4
		c-1.5-1.7-3.3-3.1-5.2-4.3c-2.9-1.7-6.5-3.4-9.3-4.7l-2.5-1.1c-0.6-0.3-0.9-0.2-0.9,0.2c0,0.1-0.3,0.3-0.4,0.6
		c-0.1,0.3-0.3,0.3-0.3,0.4L94.8,388.5z"/>
	<path class="st1" d="M154.3,464c0.1,0.1,0.1,0.1,0.2,0.2c-0.8,1.1-1.2,2-1.8,3.1l-0.7,1.4c-3.1,5.2-8.8,5.4-14,4.8l0.1,0
		c-0.2,0-0.7-0.1-1.2-0.2c-0.3-0.1-0.8-0.1-1.1-0.2c-7.2-1.5-11.9-8.8-10.6-16.3l0,0.1c0.1-0.8,0.2-1.3,0.2-1.6
		c0.2-1.9,0.8-3.9,1.3-5.6c0.3-1.1,0.7-1.9,1-3.1l1.5-5.3c0.2-0.6,0.3-1,0.3-1.3c0.3-1.4,0.7-2.8,1.1-4.2c0.1-0.3,0.1-0.8,0.2-1.1
		l0.6-2c0.1-0.3,0.3-0.7,0.4-1c0.2-0.5,0.4-1.4,0.7-1.8c0.1-0.4,0.5-1.2,0.6-1.7c0.2-0.5,0.4-1.2,0.6-1.7l0.5-1.9
		c0.3-0.8,0.6-1.7,0.9-2.7c0.7-2.1,1.4-4.1,2.4-6c0.1-0.3,0.4-0.8,0.5-1.1c0.3-0.5,0.5-0.8,0.5-0.8c0.7-1.3,1.6-2.3,2.4-3.2
		c0.7-0.6,1.5-1.2,2.1-1.5c0.7-0.4,1.4-0.6,2-0.7c0.9-0.3,1.3-0.4,2.1-0.5l2.2,0c0.4,0,1.5,0.3,1.9,0.4c1.4,0.1,2.9,0.4,4.3,0.9
		c0.3,0.1,0.3,0.2,0.6,0.3c0.3,0.1,0.7,0.3,1.4,0.6c0.3,0.1,0.8,0.3,1.3,0.6c0.3,0.1,0.3,0.2,0.6,0.3l1.6,1.2
		c1.5,1.2,2.8,2.7,3.6,4.4c1,2.9,1.4,6.3,0.3,9c-0.1,0.3,0,0.4-0.1,0.8l-1.3,4.5c-0.9,3-1.7,6.2-2.2,9.3c-0.6,3.3-1.5,7.1-2.6,10.3
		c-0.1,0.8-0.3,1.3-0.5,2l-0.6,2c-0.1,0.3-0.1,0.8-0.2,1.1c-0.1,0.4-0.2,0.7-0.1,0.9l-1.3,3.6c-0.4,1.1-0.9,2.3-1.2,3.5
		C154.5,464,154.4,464,154.3,464z M148.8,469.3c0.1,0,0.1,0,0.1-0.1c0,0,0-0.1,0.2-0.2c0.3-0.3,0.6-0.5,0.8-0.9
		c0.2-0.3,0.2-0.4,0.4-0.5l0.9-1.4c0.8-1.5,1.2-3.4,1.8-5c0.5-1.6,1.3-4,2-5.3c0.1-0.3,0-0.2,0-0.6l1.9-6.7l1.5-6.2
		c0.9-4.1,1.9-8.2,3.2-12.3l0.4-1.2c0-0.4,0.3-1.3,0.4-1.6c0.1-0.7,0.3-1.3,0.6-2c0.9-1.9,0.6-4.7-0.2-7.2c-0.7-1.7-1.3-3.2-2.7-4.4
		c-0.4-0.3-0.8-0.7-1.3-0.9c-0.6-0.4-1.2-0.7-1.7-0.8l-5-1.5c-0.4-0.1-0.9-0.1-1.2-0.2c-1.6-0.5-3.1-0.5-4.4-0.3
		c-0.4,0.2-0.8,0.1-1.2,0.3c-0.9,0.3-1.6,0.7-2.2,1l0.1,0c-1.7,1.4-2.9,3-4,4.8l0-0.1l-0.9,2c-0.8,1.6-1.3,3.3-1.8,5.1l-0.8,2.7
		c-0.1,0.4-0.3,0.7-0.4,1l-0.3,1c-0.1,0.5-0.4,1.5-0.7,1.9l-0.4,1.4c-0.1,0.4-0.3,1-0.5,1.4l-0.6,2.2c-0.6,2-1,4-1.4,6l-1.8,6
		c-0.3,0.9-0.4,1.9-0.7,2.8c-0.6,2-1.2,3.6-1.4,5.7c-0.1,0.4-0.1,0.9-0.2,1.4c-1.5,6.4,3.2,13.4,9.7,14.3c0.3,0,1,0.2,1.9,0.4
		c3.6,0.5,6.9-0.1,9.8-2.4L148.8,469.3z"/>
	<path class="st1" d="M178,478.1c0.1-0.5,0-1.1,0.1-1.5l0.1-1.2c0.1-1.2,0.4-2.5,0.7-3.6c0.2-1,0.3-1.8,0.4-2.7l0.1-0.8
		c0.2-1.4,0.5-3,0.9-4.7c0.2-0.8,0.4-1.7,0.5-2.6c0.3-1.2,0.3-2.4,0.3-3.6c0-0.3,0-0.7,0-1l0.5-4.1c0.1-0.8,0.3-1.6,0.4-2.4l0.4-3.1
		c0.5-6.5,1.2-12.8,2-19.3c0.4-3.3,0.7-6.7,1.4-9.8c1.3-1,2.8-0.7,4-0.5l0,0.7c0.9,2.7,2,6.2,2.6,9.1c0.6,2.1,1.4,4.3,1.9,6.5
		c0.7,2.2,1.6,5,2.1,7.1l3,10.4l0.7,2.1l1.1,4l1,4.2c0.3,1.7,0.7,3.1,1.3,4.5l1,3.5l-0.1-0.1l0.2,0.5l0.2,0.8l0.2,1l0.5,1.3l0.3,0.6
		l0.6,2l0.5,2l0.6,2c0.3,0.5,0.2,1.2,0.5,1.6l0.2,0.9c0.3,1.2,0.5,2,0.9,3.1l0.5,0.1c0.5-3.3,0.9-6.3,1.3-9.4l0.8-6.1
		c0.1-0.8,0.2-1.5,0.2-2.3l0.3-2c0.2-1.4,0.2-2.7,0.3-3.9c0.2-2.3,0.4-4.4,0.7-6.9l0.1-1c0.1-0.9,0.1-1.7,0.2-2.5l0.3-2.3
		c0-0.8,0.1-1.9,0.2-2.8c0.2-2.6,0.9-5.6,1.6-8.2c0.3-1.2,0.4-2.7,0.6-4l0.2-1.4c0.1-0.4,0.2-1,0.3-1.5c0.1-0.2,0.2-0.6,0.3-1.3
		l0.4-3.5c0.1-1.6,0.2-3.4,0.7-4.9c0.4-0.3,0.6-0.4,0.7-0.4c0.1,0,0.3,0.1,0.7,0.3c0.2,0.7,0.2,1.2,0,1.6c0,0.1-0.1,0.2-0.2,0.5
		l-0.1,2.7c-0.1,0.5,0,1.1-0.1,1.5l-0.1,1.2c-0.1,1.2-0.4,2.5-0.7,3.6c-0.2,1-0.3,1.8-0.5,2.8l-0.1,0.8c-0.2,1.4-0.5,2.9-0.9,4.6
		c-0.2,0.8-0.4,1.7-0.5,2.6c-0.3,1.6-0.5,3.1-0.6,4.6l-0.5,4c-0.3,2-0.5,3.8-0.6,5.5c-0.5,6.5-1.2,12.8-2,19.3
		c-0.4,3.3-0.7,6.7-1.4,9.8c-0.7,1.1-1.8,0.8-2.8,0.3c-0.1-0.1-0.5-0.2-1.1-0.2l-2.8-9.3c-0.6-2.1-1.4-4.3-1.9-6.5
		c-0.7-2.2-1.6-5-2.1-7.1c-0.6-2.7-1.7-5.8-2.3-8.5l-0.5-1.8l-0.7-2.2c-1.7-5.1-2-6.8-2.3-8.1c-0.4-1.5-0.7-3.1-1.3-4.5l-1-3.5
		l0.1,0.1l-0.2-0.5l-0.2-0.8l-0.2-0.9l-0.4-1.4l-0.3-0.6l-0.6-2l-0.5-2l-0.6-2c-0.3-0.5-0.2-1.2-0.5-1.6l-0.2-0.9
		c-0.3-1.2-0.6-2.1-0.9-3l-0.5-0.1c-0.5,3.3-0.9,6.2-1.3,9.3l-0.8,6.1c-0.1,0.8-0.2,1.5-0.2,2.3l-0.3,2c-0.2,1.4-0.2,2.7-0.3,3.9
		c-0.1,1.4-0.3,2.7-0.5,4.1c-0.1,1-0.3,1.8-0.5,2.8l-0.1,1c-0.1,0.9-0.1,1.7-0.2,2.5l-0.3,2.3c0,0.9-0.1,1.9-0.2,2.8
		c-0.2,2.6-0.7,5.6-1.3,8.2c-0.3,1.2-0.5,2.8-0.6,4c-0.1,0.5-0.2,1-0.3,1.4l-0.2,1.5c-0.1,0.2-0.2,0.6-0.3,1.3l-0.4,3.5
		c-0.1,1.6-0.2,3.6-0.7,4.9c-0.4,0.3-0.6,0.4-0.8,0.3c-0.4-0.1-0.6-0.1-0.7-0.2c-0.3-0.4-0.2-1,0-1.9c0-0.1,0.1-0.2,0.1-0.3
		L178,478.1z"/>
	<path class="st1" d="M270.1,477.1c-0.1,1.4-0.5,2.5-0.9,3.3l-0.4,0.8c-0.9,2.1-2.5,4.1-4.6,4.9l-0.7,0.5c-0.7,0.4-1.9,0.8-3.3,1.2
		c-0.1,0-0.2,0.1-0.5,0.1l-1.5,0.4c-0.9,0.2-1.7,0.4-2.7,0.4l-1,0c-3.2-0.2-7-1.4-9.2-3.8l-1-0.8c-0.5-0.7-0.9-1.4-1.3-2.2l0.1,0.1
		l-0.3-0.4l-0.5-0.6c-0.6-1.2-0.7-2.6-1.1-4.2l0-1.4c0-0.1-0.1-0.1-0.1-0.4c-0.2-0.6-0.4-1.4-0.4-2.4l0-1.2
		c-0.2-1.8-0.4-4.9-0.4-6.6c0-1.2-0.1-2.8,0-4l0-0.5c-0.1-0.1-0.1-0.3-0.1-0.9l0-1.1c-0.2-2.2-0.4-5.5-0.5-7.6c0-0.9,0.1-1.6,0-2.5
		l-0.1-3.9c0.1-1.6,0-2.8,0-4.4c-0.1-1.8-0.1-4,0.1-5.9l0,0.1c0-0.1,0.1-0.2,0.1-0.3c0-0.3,0-0.5,0.1-0.8l0.8-3.1
		c0-0.1,0.1,0,0.1-0.3c0-0.1,0-0.2,0.1-0.3c0,0,0.1-0.2,0.2-0.7c1.5-3.2,3.8-5.3,6.9-6.4c0.2,0,0.3,0,0.4-0.1c0.1,0,0.3-0.1,0.4-0.2
		c2.3-0.7,4.7-1,7.7-0.9c2.5,0.2,4.7,1.5,6.5,2.7l0-0.1c0.6,0.3,1.7,1.7,2.5,2.4c1.5,2,2.1,4,2.5,7.4l0.1,1.5c0,0.3,0.1,0.3,0.1,0.6
		c0.1,0.9,0.1,2.4-1.7,2.1c-0.2-0.4-0.4-1-0.4-1.7c-0.1,0.1-0.1,0.1-0.1,0l0-1.4c-0.2-1.7-0.3-3.5-0.9-4.8c-0.9-1.6-1.7-2.9-2.5-3.7
		c-0.9-0.8-2.2-1.7-3.7-2.4c-1.3-0.4-2.9-0.7-4.6-0.6c-1.4,0-2.8,0.3-4.1,0.8l-0.5,0c-0.1,0.1-0.2,0.1-0.4,0.1
		c-2.2,0.8-4.8,2.9-5.9,5.1c-0.1,0.1-0.2,0.3-0.2,0.4l-0.2,0.5l-0.3,0.9c-0.1,0.1-0.1,0.2-0.1,0.3c0,0.1-0.1,0.2-0.1,0.3l-0.2,1
		c-0.1,0.4-0.2,0.8-0.2,1c0,0.1-0.1,0.3-0.1,0.4c-0.7,2.1-0.4,3.8-0.2,5.9c0,1.2,0.1,2.7,0,3.9l0.1,3.8c0,0.9,0,1.8,0,2.7
		c0.1,2.6,0.3,5.2,0.5,7.8l0,1.1c0,0.2,0,0.4,0.1,0.5l0,0.9c0,0.4-0.1,0.8-0.1,1.1l0,1c-0.1,1.7,0,3.4,0.1,5.1
		c0,1.3,0.1,2.6,0.2,3.8l0,0.5c0,0.1,0.1,0.1,0.1,0.4c0,1.2,0.2,2.1,0.5,2.7c0,1,0.2,1.8,0.3,2.6c0.1,0.8,0.5,1.3,0.6,2l0.5,1.1
		l0.9,1.5l0.3,0.5c0,0.1,0.1,0.2,0.2,0.2c2.2,2.9,5.9,3.6,9.7,3.8l0.5,0c0.1,0,0.2-0.1,0.3-0.1c0.8-0.1,1.7-0.3,2.9-0.7l1.1-0.3
		l0.7-0.2c0.4-0.1,1-0.5,1.4-0.6c0.1,0,0.3-0.1,0.4-0.1c0.1,0,0.2-0.1,0.4-0.3c1.7-0.6,2.6-2.4,3.4-4l0.4-0.8l0.3-1.3
		c0-0.3,0.2-0.5,0.2-0.9c0.1-0.1,0.1-0.3,0.1-0.4c0.1-0.8,0.1-1.6,0-2.4l0-0.8c0-1-0.2-2.1,0.1-3.3c0.3-1,1.8-0.7,1.9,0.5
		L270.1,477.1z"/>
	<path class="st1" d="M330.3,476c-0.1-0.3,0.1-0.1,0.3,0.6c0.3,0.8,0.5,1.2,0.4,1.4c-0.2,0.6-0.7,0.8-1.5,0.5
		c-0.5-0.3-0.7-0.9-1.2-1.5c0-0.1-0.2-0.3-0.2-0.4l-0.4-0.8l-0.6-1.6c-0.1-0.3-0.2-0.4-0.2-0.7c0-0.1-0.2-0.5-0.5-1.2l-0.4-1.1
		c-1.3-2.5-2.4-5.1-3.3-7.4c-3.3,0.6-6.7,1.4-10.2,2.3c-3.8,1-7.6,1.9-11.3,2.6l-1.7,0.3c-0.5,0.1-0.8,0-1.3,0.1l-0.2,4.7l0,5.2
		c0,0.1,0,0.4,0,0.6l-0.4,0.1c0.2,0.5,0.4,1,0.5,1.6c-0.1,0.2,0,0.4,0,0.8l0.2,2.7c0,0.4-0.3,0.7-0.7,0.8c-0.3,0.2-1,0.2-1.4-0.3
		c-0.1-0.3,0-0.6-0.1-0.9c0-1.7-0.4-3.7-0.2-5.4l-0.1-0.6l0.1-4.8l0-2.3l0.1-3.8l0.3-4.8l0.1-1.8c0.1-1.7,0.2-3.4,0.3-5
		c0-6.2-0.1-13.1,0.2-18.6c-0.1-0.9,0-1.8,0-2.3c0.1-2.5,0.2-5,0.5-7.4l0.2-2.5l0.2-4.1c-0.3-1.4-0.3-3.9,1.5-3.8
		c0.1,0,0.2,0,0.3-0.2l1.9-0.4l1.9,0l4,7.7l0.2,0.6l0.3,0.5l0-0.1l4.3,9.3l1,2l2.2,4.4l2.5,5c0.9,1.7,1.7,3.5,2.5,5.5l1.6,4l0.4,0.9
		c0.3,0.9,0.8,1.9,1.1,2.9l0.7,2c0.6,1.5,1.2,3.1,1.9,4.4l2.4,6.1c0.1,0.3,0.5,1.6,1,2.3L330.3,476z M298.1,466.7
		c5-0.8,8.9-1.7,13.5-2.9c3.3-1,6.4-1.7,10.6-2.4c-2.7-7.4-6.5-14.9-10-22.1c-1.4-2.7-2.6-5.5-3.9-8.3l-1.1-2.3l-1.4-2.8l-0.2-0.7
		l-0.6-1.1l-0.5-0.9l-2.3-4.5l-1.6,0.3c-0.3,0.1-0.4,0-0.6,0l-0.1,0l-0.1,0.2c0.2,1.6,0.1,3.1,0,4.3l-0.2,0.9c0,0.6-0.1,0.9-0.1,0.9
		c-0.1,0.1-0.1,0.1-0.1,0.2c0,0.1,0,0.3,0,0.4l-0.1,3.1c-0.4,7.1-0.9,13.3-0.6,20.3c0,3.1,0.2,6.1,0,9.2c0,2.1-0.2,4-0.4,5.9
		L298.1,466.7z"/>
	<path class="st1" d="M337.9,409.1c1-0.9,2.5-1.6,4.2-2.3l0.8-0.3c1.3-0.6,3.5-1.2,5-1.7c0.3-0.1,0.5-0.1,0.9-0.2l0.9-0.3
		c0.1,0.1,0.3,0,0.6-0.1c0.1,0,0.3,0,0.4,0l0.4-0.1c1.8-0.7,3.4-1,4.7-0.9l1,0c0,0,0.2,0,0.7,0l1,0c1.4,0.1,3.2,0.8,4.4,1.7l1,0.7
		c0.2,0.3,0.6,0.4,0.7,0.4c0.9,0.9,1.8,1.9,2.6,3c0.4,0.8,0.8,1.6,1.2,2.7l0.2,0.6c0.1,0.3,0.2,0.3,0.3,0.6c1,1.8,1.9,4.4,2.7,6.4
		c0.6,1.6,1.1,3.2,1.8,4.8c0.4,1.2,1,2.4,1.5,3.6c0.5,1.2,1.1,2.5,1.6,3.8l1.3,3.7c0.4,1.5,0.9,2.9,1.5,4.3l1.6,4.5
		c0.1,0.4,0.5,1.3,0.5,1.8c0.1,0.4,0.4,1.4,0.4,1.7l0.2,1.5l0-0.1l0.3,2.2c0.1,0.5,0,1-0.1,1.3c0,0.1,0,0.6,0,0.7l-0.1,1.7
		c-0.6,3.5-3.9,7.7-7.6,9.1c-0.7,0.4-1.4,0.6-2.1,0.9c-0.3,0.1-0.3,0.2-0.6,0.3l-1.7,0.6c-1.7,0.6-3.4,1.1-5.1,1.6l-1.6,0.6
		c-1.2,0.4-2.8,1-4,1.6l-1.1-0.4l-0.8-2.1c-0.1-0.3,0-0.2-0.1-0.5l-0.4-1.1c-0.2-0.2-0.3-0.5-0.4-0.9c0-0.1-0.2-0.2-0.3-0.6
		l-0.5-1.3c-0.5-1.2-1.3-3.2-1.7-4.4c-0.7-1.9-1.4-3.9-2-5.9l-0.4-1.2c-0.2-0.5-0.3-1.1-0.4-1.4l-1.4-3.8c-0.1-0.4-0.4-0.9-0.6-1.3
		l-0.5-1.3c-0.8-2.1-1.5-4.3-2.3-6.7l-4.6-12.7c-0.6-1.7-1.3-3.6-1.9-5.5c-0.7-2.4-2.1-6.3-2.8-8.2L337.9,409.1z M370.7,463.2
		c0.3-0.1,0.3-0.2,0.6-0.3c0.7-0.3,1.6-0.6,2.3-0.9c0.2,0,0.7-0.2,1.5-0.4c2.7-1.1,5-3.6,5.2-6.8l0-0.8l0.1-1l0.1-1.7
		c0-0.1,0-0.3-0.1-0.8l0-0.8c-0.1-0.4-0.3-1.3-0.3-1.4c0.1-0.1,0-0.3-0.2-0.8c0-0.1,0-0.3,0-0.4c-0.2-0.7-0.2-1.2-0.3-1.5
		c0-0.3-0.2-1-0.3-1.3c-0.4-0.7-0.7-1.5-0.8-2l-1.8-4.9c-0.3-0.8-0.3-1.4-0.9-2.1l-0.7-1.8c-0.7-1.9-1.4-3.5-2.1-5.1
		c-0.3-0.7-0.7-1.5-0.9-2.2c-0.8-1.9-1.9-4.6-2.5-6.2c-0.9-2.4-1.8-4.8-2.7-6.9c-0.7-1.5-2-3.9-3.2-5.2c-0.4-0.2-0.7-0.6-0.9-0.8
		c-0.1-0.1-0.6-0.3-0.6-0.4l-1-0.6c-0.4-0.2-0.7-0.6-1.5-0.6l-0.7-0.3c-1.5,0.6-1.4,0.4-1.7,0.4l-0.9,0c-1.8-0.2-3.5,0.2-5.7,0.9
		c-0.5,0.1-0.9,0.1-1.6,0.3c-1.3,0.3-2.4,0.6-3.6,1.1c-1.5,0.6-3.1,1.2-4.8,2.1c-0.3,0.1-0.3,0.2-0.6,0.3l3.2,9
		c2.4,7,4.6,13.3,7.2,20.7l5,13.8c0.4,1.6,1,3,1.4,4.3c0.6,1.5,1,2.8,1.6,4.2l1.2,3.3c0.2,0.3,0.5,1,0.6,1.3l0.7-0.3
		c0.1,0,0.2-0.2,0.3-0.2l2-0.7c0.3-0.1,0.6-0.1,1-0.2l0.8-0.3c1.3-0.3,2.5-0.7,3.6-1.1L370.7,463.2z"/>
	<path class="st1" d="M431.4,426.6c0.1,0,0.1,0,0.2,0c0.2,1.3,0.6,2.3,0.9,3.5l0.4,1.5c1.5,5.9-2.4,10.1-6.6,13.3l0.1-0.1
		c-0.1,0.2-0.5,0.4-1,0.7c-0.3,0.2-0.6,0.5-0.9,0.6c-6.2,4-14.6,2.1-19-4.1l0.1,0.1c-0.5-0.6-0.8-1-1-1.3c-1.2-1.5-2.2-3.4-3-4.9
		c-0.6-1-0.9-1.9-1.5-2.9l-2.6-4.9c-0.3-0.6-0.5-1-0.7-1.1c-0.8-1.2-1.5-2.5-2.2-3.8c-0.2-0.3-0.5-0.6-0.6-0.9l-1-1.8
		c-0.2-0.3-0.3-0.7-0.4-1c-0.3-0.5-0.7-1.2-0.8-1.8c-0.2-0.4-0.5-1.2-0.8-1.7c-0.3-0.5-0.6-1.1-0.8-1.7l-0.9-1.7
		c-0.3-0.8-0.8-1.7-1.2-2.5c-0.9-2-1.9-3.9-2.5-5.9c-0.2-0.3-0.2-0.9-0.4-1.2c-0.2-0.5-0.2-0.9-0.2-0.9c-0.4-1.4-0.5-2.7-0.6-4
		c0.1-0.9,0.2-1.8,0.4-2.6c0.2-0.7,0.6-1.4,1-1.9c0.4-0.8,0.6-1.2,1.1-1.8l1.5-1.6c0.3-0.3,1.3-0.8,1.7-1c1.1-1,2.4-1.8,3.7-2.4
		c0.3-0.2,0.3-0.1,0.6-0.2c0.3-0.2,0.7-0.3,1.4-0.5c0.3-0.2,0.8-0.3,1.3-0.5c0.3-0.2,0.3-0.1,0.6-0.2l2-0.2c1.9-0.2,3.9,0,5.6,0.6
		c2.7,1.4,5.4,3.5,6.6,6.2c0.2,0.3,0.3,0.3,0.5,0.6l2.2,4.1c1.5,2.8,3.1,5.6,4.9,8.2c1.9,2.8,3.9,6.1,5.4,9.1
		c0.5,0.6,0.7,1.1,1.1,1.8l1,1.8c0.2,0.3,0.5,0.6,0.6,0.9c0.2,0.4,0.4,0.7,0.5,0.7l1.6,3.4c0.5,1.1,1,2.3,1.6,3.3
		C431.6,426.4,431.5,426.5,431.4,426.6z M431.2,434.2c0.1-0.1,0.1-0.1,0-0.1c0,0-0.1-0.1,0-0.2c0-0.4,0.1-0.8,0-1.2
		c-0.1-0.3-0.1-0.4-0.1-0.6l-0.4-1.6c-0.5-1.6-1.5-3.2-2.2-4.8c-0.8-1.4-1.9-3.8-2.3-5.2c-0.2-0.3-0.2-0.1-0.4-0.4l-3.3-6.1
		l-3.3-5.5c-2.3-3.6-4.4-7.2-6.3-11l-0.6-1.1c-0.3-0.3-0.7-1.1-0.9-1.4c-0.4-0.5-0.7-1.1-1-1.8c-0.7-2-2.9-3.7-5.2-5
		c-1.7-0.7-3.2-1.3-5-1.2c-0.5,0-1.1,0.1-1.6,0.2c-0.7,0.1-1.3,0.3-1.8,0.6l-4.6,2.5c-0.4,0.2-0.7,0.5-1,0.7
		c-1.4,0.8-2.6,1.9-3.3,2.9c-0.1,0.4-0.5,0.6-0.6,1.1c-0.4,0.8-0.6,1.6-0.8,2.3l0.1-0.1c-0.2,2.2,0,4.2,0.5,6.2l-0.1-0.1l0.7,2.1
		c0.5,1.7,1.4,3.3,2.3,4.9l1.3,2.5c0.2,0.4,0.3,0.7,0.4,1l0.5,1c0.3,0.5,0.7,1.3,0.9,1.9l0.7,1.2c0.2,0.4,0.5,1,0.6,1.4l1.1,2
		c1,1.8,2.1,3.6,3.2,5.3l3,5.5c0.5,0.9,1,1.7,1.5,2.5c1,1.8,1.7,3.4,3,5c0.2,0.4,0.5,0.7,0.9,1.1c3.4,5.7,11.7,7.2,17,3.4
		c0.2-0.3,0.8-0.6,1.7-1c2.9-2.2,4.8-5,5.3-8.7L431.2,434.2z"/>
</g>
</svg>
